<svg xmlns="http://www.w3.org/2000/svg" xmlns:xlink="http://www.w3.org/1999/xlink" version="1.1" x="0px" y="0px" viewBox="0 0 100 125" style="enable-background:new 0 0 100 100;" xml:space="preserve"><g><g><path d="M79.3,34.2c0-15.7-12.8-28.5-28.5-28.5S22.3,18.4,22.3,34.2c0,22.3,28.5,60.2,28.5,60.2S79.3,56.3,79.3,34.2z M26.3,34.2    c0-13.5,11-24.5,24.5-24.5s24.5,11,24.5,24.5c0,16.3-17.2,42.8-24.5,53.3C43.6,77,26.3,50.6,26.3,34.2z"/></g><g><path d="M50.8,18.8c-8.3,0-15,6.7-15,15c0,8.3,6.7,15,15,15c8.3,0,15-6.7,15-15C65.8,25.5,59.1,18.8,50.8,18.8z M59.6,37.4    c0,0.2-0.2,0.4-0.5,0.3l-6.6-2.6l-0.6,5.3l2.1,1.4c0.1,0.1,0.2,0.2,0.2,0.3v0.3c0,0.2-0.2,0.4-0.5,0.3L51.3,42l-2.5,0.8    c-0.2,0.1-0.5-0.1-0.5-0.3v-0.3c0-0.1,0.1-0.2,0.2-0.3l2.1-1.4L50,35.2l-6.6,2.6c-0.2,0.1-0.5-0.1-0.5-0.3v-1.2    c0-0.1,0.1-0.2,0.1-0.3l6.9-5.3l0.6-5.9c0-0.1,0-0.1,0.1-0.2l0.3-0.4c0.1-0.2,0.4-0.2,0.5,0l0.3,0.4c0,0.1,0.1,0.1,0.1,0.2    l0.6,5.9l6.9,5.3c0.1,0.1,0.1,0.2,0.1,0.3V37.4z"/></g></g><text x="0" y="115" fill="#000000" font-size="5px" font-weight="bold" font-family="'Helvetica Neue', Helvetica, Arial-Unicode, Arial, Sans-serif">Created by Viktor Vorobyev</text><text x="0" y="120" fill="#000000" font-size="5px" font-weight="bold" font-family="'Helvetica Neue', Helvetica, Arial-Unicode, Arial, Sans-serif">from the Noun Project</text></svg>