<svg xmlns="http://www.w3.org/2000/svg" xmlns:xlink="http://www.w3.org/1999/xlink" version="1.1" x="0px" y="0px" viewBox="0 0 100 125" style="enable-background:new 0 0 100 100;" xml:space="preserve"><g><path style="fill:#ff0000;" d="M51,90.7c-2.4,0-3.8-3-4.7-6.1l-12.1,3c-0.5,0.1-1.1,0-1.5-0.5c-0.4-0.4-0.5-1-0.3-1.5l1.6-4.1c0.1-0.3,0.4-0.6,0.7-0.8   l9.7-5.5c-0.8-5.4-1.3-12.4-1.8-21.1L11.8,56c-0.6,0-1.1-0.2-1.4-0.7c-0.3-0.5-0.3-1.1,0-1.6l3.8-6.1c0.2-0.3,0.5-0.5,0.8-0.6   l27.1-9.5c-0.2-7.4-0.2-12.6-0.2-12.6c0-5.4,4.2-16.3,9.1-16.3s9.1,10.9,9.1,16.3c0,0.1,0,5.3-0.2,12.6L87,47   c0.3,0.1,0.6,0.3,0.8,0.6l3.8,6.1c0.3,0.5,0.3,1.1,0,1.6c-0.3,0.5-0.8,0.8-1.4,0.7l-30.9-1.9c-0.5,8.7-1,15.7-1.8,21.1l9.7,5.5   c0.3,0.2,0.5,0.4,0.7,0.8l1.6,4.1c0.2,0.5,0.1,1.1-0.3,1.5c-0.4,0.4-0.9,0.6-1.5,0.5l-12.1-2.9C54.5,88.7,53,90.7,51,90.7z    M47.4,81.3c0.7,0,1.3,0.5,1.5,1.1c1,4,1.9,5,2.1,5.2c0.4-0.3,1.3-1.6,2.1-5.2c0.1-0.4,0.3-0.7,0.7-0.9c0.3-0.2,0.8-0.3,1.1-0.2   L65.7,84L65.3,83l-10.1-5.7c-0.5-0.3-0.8-0.9-0.7-1.5c0.9-5.8,1.5-13.4,2-23.4c0-0.4,0.2-0.8,0.5-1S57.6,51,58,51l29.5,1.8l-2-3.2   l-27.6-9.7c-0.6-0.2-1-0.8-1-1.5c0.2-7.9,0.2-13.6,0.2-13.7c0-5.1-4.1-13.3-6.1-13.3c-2,0-6.1,8.2-6.1,13.3c0,0.1,0,5.8,0.2,13.7   c0,0.6-0.4,1.2-1,1.5l-27.6,9.7l-2,3.2L44,51c0.4,0,0.8,0.1,1.1,0.4c0.3,0.3,0.5,0.6,0.5,1c0.5,9.9,1.1,17.6,2,23.4   c0.1,0.6-0.2,1.2-0.7,1.5L36.7,83L36.3,84L47,81.3C47.2,81.3,47.3,81.3,47.4,81.3z"/></g><text x="0" y="115" fill="#000000" font-size="5px" font-weight="bold" font-family="'Helvetica Neue', Helvetica, Arial-Unicode, Arial, Sans-serif">Created by Presenttas</text><text x="0" y="120" fill="#000000" font-size="5px" font-weight="bold" font-family="'Helvetica Neue', Helvetica, Arial-Unicode, Arial, Sans-serif">from the Noun Project</text></svg>
